<?xml version="1.0" encoding="utf-8"?>
<!-- Generator: Adobe Illustrator 25.0.0, SVG Export Plug-In . SVG Version: 6.00 Build 0)  -->
<svg version="1.1"
	 id="svg72699" xmlns:cc="http://creativecommons.org/ns#" xmlns:dc="http://purl.org/dc/elements/1.1/" xmlns:rdf="http://www.w3.org/1999/02/22-rdf-syntax-ns#" xmlns:svg="http://www.w3.org/2000/svg"
	 xmlns="http://www.w3.org/2000/svg" xmlns:xlink="http://www.w3.org/1999/xlink" x="0px" y="0px" viewBox="0 0 512 512"
	 style="enable-background:new 0 0 512 512;" xml:space="preserve">
<style type="text/css">
	.st0{clip-path:url(#SVGID_2_);}
	.st1{fill:#4285F4;}
	.st2{fill:#34A853;}
	.st3{fill:#FBBC05;}
	.st4{fill:#EA4335;}
</style>
<g id="layer1" transform="translate(-325.45196,-141.38025)">
	<g id="g17472" transform="matrix(25.816883,0,0,-25.816883,-16209.975,6521.6873)">
		<g>
			<defs>
				<rect id="SVGID_1_" x="493.7" y="12.2" width="313.4" height="450"/>
			</defs>
			<clipPath id="SVGID_2_">
				<use xlink:href="#SVGID_1_"  style="overflow:visible;"/>
			</clipPath>
			<g id="g17474" class="st0">
				<g id="g17480" transform="translate(646.3034,236.3789)">
					<path id="path17482" class="st1" d="M4.1-1.7c1.4,0,2.6,1.2,2.6,2.6l0,6.1c0,1.4-1.2,2.6-2.6,2.6C2.7,9.6,1.5,8.4,1.5,7V0.9
						C1.5-0.6,2.7-1.7,4.1-1.7"/>
				</g>
				<g id="g17484" transform="translate(645.4803,233.1492)">
					<path id="path17486" class="st2" d="M4.1-1.9L4.1-1.9v-2.7h1.7v2.7C5.5-2,5.2-2,4.9-2C4.6-2,4.3-2,4.1-1.9"/>
				</g>
				<g id="g17488" transform="translate(643.3809,235.9115)">
					<path id="path17490" class="st3" d="M3.9-1.8C3.2-1,2.7,0,2.7,1.3H1C1-0.5,1.6-1.9,2.7-3l0,0c0,0,0,0,0,0L3.9-1.8z"/>
				</g>
				<g id="g17492" transform="translate(650.4081,238.79)">
					<path id="path17494" class="st4" d="M4.3-1.6c0-2.2-1.9-4.3-4.3-4.3c-1.2,0-2.3,0.5-3.1,1.3l0,0l-1.2-1.2c0,0,0,0,0,0
						c0.9-0.9,2.1-1.5,3.4-1.7c0.3,0,0.6-0.1,0.9-0.1c0.3,0,0.6,0,0.9,0c2.9,0.4,5.2,2.9,5.2,6H4.3z"/>
				</g>
			</g>
		</g>
	</g>
</g>
</svg>
